<?xml version="1.0" standalone="no"?>
<!DOCTYPE svg PUBLIC "-//W3C//DTD SVG 20010904//EN"
 "http://www.w3.org/TR/2001/REC-SVG-20010904/DTD/svg10.dtd">
<svg version="1.0" xmlns="http://www.w3.org/2000/svg"
 width="512.000000pt" height="512.000000pt" viewBox="0 0 512.000000 512.000000"
 preserveAspectRatio="xMidYMid meet">
<metadata>
Created by potrace 1.14, written by Peter Selinger 2001-2017
</metadata>
<g transform="translate(0.000000,512.000000) scale(0.100000,-0.100000)"
fill="#CC0000" stroke="none">
<path d="M411 5109 c-189 -32 -356 -197 -401 -399 -13 -62 -13 -4238 0 -4300
26 -115 97 -230 186 -300 57 -46 151 -88 224 -99 90 -15 4190 -15 4280 0 199
32 364 192 410 399 13 62 13 4238 0 4300 -26 115 -97 230 -186 300 -57 46
-151 88 -224 99 -82 14 -4209 13 -4289 0z m1757 -1570 c65 -32 99 -66 135
-133 20 -37 22 -59 25 -213 l4 -173 -146 0 -146 0 0 130 0 130 -555 0 -555 0
0 -725 0 -725 555 0 555 0 0 130 0 130 146 0 146 0 -4 -172 c-3 -161 -5 -176
-28 -221 -29 -58 -86 -112 -149 -141 -45 -21 -58 -21 -623 -24 -605 -3 -653
-1 -736 40 -57 29 -117 103 -137 170 -23 77 -23 1549 0 1625 24 82 111 168
195 194 14 4 302 8 641 8 l616 1 61 -31z m2125 15 c63 -21 130 -84 164 -152
26 -53 28 -66 31 -219 l4 -163 -151 0 -151 0 0 130 0 130 -550 0 -550 0 0
-725 0 -725 550 0 550 0 0 130 0 131 148 -3 147 -3 0 -160 c-1 -151 -2 -163
-27 -215 -33 -70 -79 -116 -148 -149 l-55 -26 -610 0 c-576 0 -613 1 -659 19
-65 25 -133 88 -162 151 l-24 50 0 800 c0 756 1 802 19 841 34 75 92 128 176
161 22 8 198 12 641 12 531 1 616 -1 657 -15z"/>
</g>
</svg>
