<?xml version="1.0" encoding="UTF-8"?><svg xmlns="http://www.w3.org/2000/svg" version="1.2" width="512.000000pt" height="512.000000pt" viewBox="0 0 512.000000 512.000000" preserveAspectRatio="xMidYMid meet" baseProfile="tiny-ps"><title>calumcrawford.com</title><g transform="translate(0.000000,512.000000) scale(0.100000,-0.100000)" fill="#cc0000" stroke="none"><path d="M415 5110 c-183 -38 -330 -170 -391 -350 -18 -53 -19 -134 -19 -2200 0 -2066 1 -2147 19 -2200 52 -154 168 -274 322 -332 l59 -23 2155 0 2155 0 59 23 c154 58 270 178 322 332 18 53 19 134 19 2200 0 2066 -1 2147 -19 2200 -52 154 -168 274 -322 332 l-59 23 -2130 1 c-1172 1 -2148 -2 -2170 -6z m1280 -1275 c244 -51 460 -160 632 -320 l73 -67 -93 -99 -92 -98 -65 65 c-116 117 -276 209 -448 256 -66 19 -104 22 -257 22 -206 0 -271 -13 -421 -83 -290 -136 -501 -419 -559 -750 -19 -107 -19 -295 0 -402 49 -280 205 -530 424 -678 386 -262 911 -215 1260 114 l67 64 87 -87 c48 -48 87 -92 87 -98 0 -6 -30 -40 -67 -75 -175 -167 -409 -282 -662 -324 -153 -26 -387 -17 -531 20 -328 85 -609 293 -782 581 -166 276 -224 640 -153 972 110 521 535 919 1065 997 117 18 324 13 435 -10z m2560 0 c177 -36 362 -115 501 -213 80 -57 194 -159 194 -174 0 -5 -39 -52 -87 -103 l-88 -94 -75 73 c-92 89 -145 125 -265 182 -157 75 -221 88 -430 88 -154 0 -191 -3 -258 -22 -273 -76 -494 -257 -622 -512 -90 -179 -121 -332 -112 -554 6 -163 27 -260 85 -393 197 -457 673 -691 1155 -569 172 44 318 124 453 249 l71 66 86 -87 c48 -48 87 -92 87 -98 0 -16 -127 -135 -201 -187 -102 -72 -281 -154 -416 -189 -114 -31 -125 -32 -323 -32 -190 -1 -213 1 -310 26 -439 111 -781 431 -914 857 -61 193 -78 451 -42 651 97 545 529 965 1076 1045 117 18 324 13 435 -10z"></path></g></svg>